<svg xmlns="http://www.w3.org/2000/svg" viewBox="0 0 19 17" width="19" height="17">
	<style>
		tspan { white-space:pre }
		.shp0 { fill: #95e1d3 } 
	</style>
	<g id="blog">
		<g id="2">
			<path id="SPEECH BUBBLE 2" class="shp0" d="M10.42 13.36C9.84 13.36 9.28 13.19 8.74 13.11C6.55 15.89 3.09 15.34 3.09 15.34C5.53 14.19 5.48 12.27 5.05 12.02C3.13 10.89 1.98 9.18 1.98 7.26C1.98 3.86 5.71 1.12 10.42 1.12C15.12 1.12 17.99 3.86 17.99 7.26C17.99 10.65 15.12 13.36 10.42 13.36ZM6.24 5.88C5.41 5.88 4.74 6.55 4.74 7.37C4.74 8.2 5.41 8.87 6.24 8.87C7.07 8.87 7.74 8.2 7.74 7.37C7.74 6.55 7.07 5.88 6.24 5.88ZM9.99 5.88C9.16 5.88 8.49 6.55 8.49 7.37C8.49 8.2 9.16 8.87 9.99 8.87C10.82 8.87 11.49 8.2 11.49 7.37C11.49 6.55 10.82 5.88 9.99 5.88ZM13.74 5.88C12.91 5.88 12.24 6.55 12.24 7.37C12.24 8.2 12.91 8.87 13.74 8.87C14.57 8.87 15.24 8.2 15.24 7.37C15.24 6.55 14.57 5.88 13.74 5.88Z" />
		</g>
	</g>
</svg>