<svg xmlns="http://www.w3.org/2000/svg" viewBox="0 0 22 14" width="22" height="14">
	<style>
		tspan { white-space:pre }
		.shp0 { fill: #95e1d3 } 
	</style>
	<g id="blog">
		<g id="2">
			<path id="VIEW" class="shp0" d="M20.71 6.78C20.71 6.78 20.71 6.79 20.71 6.8C20.71 6.8 20.71 6.81 20.71 6.81C20.71 6.82 20.71 6.82 20.7 6.83C20.7 6.84 20.7 6.84 20.7 6.85C20.7 6.85 20.7 6.85 20.7 6.85C20.68 7.01 20.61 7.15 20.5 7.26C20.29 7.51 20.07 7.74 19.85 7.97C18.64 9.2 17.25 10.3 15.72 11.09C14.75 11.6 13.71 12.01 12.64 12.21C11.45 12.43 10.26 12.41 9.09 12.16C7.05 11.71 5.2 10.61 3.58 9.3C2.83 8.68 2.09 8.02 1.47 7.26C1.2 6.93 1.2 6.54 1.47 6.21C1.68 5.97 1.9 5.74 2.12 5.51C3.34 4.28 4.73 3.18 6.25 2.39C7.22 1.88 8.26 1.47 9.34 1.27C10.52 1.05 11.71 1.06 12.89 1.32C14.93 1.76 16.77 2.87 18.39 4.18C19.14 4.79 19.88 5.46 20.5 6.21C20.61 6.33 20.68 6.47 20.7 6.62C20.7 6.63 20.7 6.63 20.7 6.63C20.7 6.63 20.7 6.64 20.7 6.65C20.71 6.65 20.71 6.66 20.71 6.66C20.71 6.67 20.71 6.67 20.71 6.68C20.71 6.69 20.71 6.69 20.71 6.7C20.71 6.71 20.71 6.73 20.71 6.74C20.71 6.75 20.71 6.76 20.71 6.78ZM10.99 2.94C8.98 2.94 7.35 4.57 7.35 6.59C7.35 8.6 8.98 10.23 10.99 10.23C13 10.23 14.64 8.6 14.64 6.59C14.64 4.57 13 2.94 10.99 2.94ZM10.99 8.41C9.98 8.41 9.17 7.59 9.17 6.59C9.17 5.58 9.98 4.76 10.99 4.76C12 4.76 12.81 5.58 12.81 6.59C12.81 7.59 12 8.41 10.99 8.41Z" />
		</g>
	</g>
</svg>