<svg xmlns="http://www.w3.org/2000/svg" viewBox="0 0 35 35" width="35" height="35">
	<style>
		tspan { white-space:pre }
		.shp0 { fill: #95e1d3 } 
	</style>
	<g id="service">
		<g id="2">
			<path id="LINE GRAPH" class="shp0" d="M31.5 34L2.5 34C1.67 34 1 33.33 1 32.5L1 3.5C1 2.67 1.67 2 2.5 2L31.5 2C32.33 2 33 2.67 33 3.5L33 32.5C33 33.33 32.33 34 31.5 34ZM30 5L4 5L4 31L30 31L30 5ZM6.22 18.24L6.21 18.24L10.21 15.74L10.22 15.74C10.44 15.6 10.71 15.52 11 15.52C11.31 15.52 11.6 15.61 11.84 15.77L11.85 15.77L18.48 20.19L26.11 14.79C26.36 14.61 26.67 14.51 27 14.51C27.83 14.51 28.5 15.18 28.5 16.01C28.5 16.51 28.25 16.95 27.88 17.22L27.88 17.22L19.38 23.22L19.38 23.22C19.13 23.4 18.83 23.51 18.5 23.51C18.18 23.51 17.88 23.4 17.64 23.23L10.98 18.8L7.85 20.76C7.61 20.92 7.31 21.02 7 21.02C6.17 21.02 5.5 20.35 5.5 19.52C5.5 18.98 5.79 18.5 6.22 18.24Z" />
		</g>
	</g>
</svg>