<svg xmlns="http://www.w3.org/2000/svg" viewBox="0 0 34 33" width="34" height="33">
	<style>
		tspan { white-space:pre }
		.shp0 { fill: #95e1d3 } 
	</style>
	<g id="service">
		<g id="1">
			<path id="ALARM" class="shp0" d="M31.74 10.5C30.16 6.81 27.19 3.84 23.5 2.26C24.5 1.47 25.75 1 27.13 1C30.37 1 33 3.63 33 6.87C33 8.25 32.53 9.5 31.74 10.5ZM31.5 17C31.5 20.85 29.99 24.34 27.54 26.94L29.57 28.97C29.83 29.24 30 29.61 30 30.02C30 30.84 29.34 31.5 28.52 31.5C28.11 31.5 27.74 31.33 27.47 31.07L25.29 28.89C22.94 30.53 20.08 31.5 17 31.5C13.92 31.5 11.07 30.53 8.72 28.9L6.56 31.06C6.29 31.33 5.91 31.5 5.5 31.5C4.67 31.5 4 30.83 4 30C4 29.59 4.17 29.21 4.44 28.94L6.45 26.93C4.01 24.33 2.5 20.85 2.5 17C2.5 8.99 8.99 2.5 17 2.5C25.01 2.5 31.5 8.99 31.5 17ZM17 5.5C10.65 5.5 5.5 10.65 5.5 17C5.5 23.35 10.65 28.5 17 28.5C23.35 28.5 28.5 23.35 28.5 17C28.5 10.65 23.35 5.5 17 5.5ZM23 18.5L17 18.5C16.17 18.5 15.5 17.83 15.5 17L15.5 9C15.5 8.17 16.17 7.5 17 7.5C17.83 7.5 18.5 8.17 18.5 9L18.5 15.5L23 15.5C23.83 15.5 24.5 16.17 24.5 17C24.5 17.83 23.83 18.5 23 18.5ZM2.29 10.71C1.48 9.69 1 8.4 1 7C1 3.69 3.69 1 7 1C8.4 1 9.69 1.48 10.71 2.29C6.93 3.9 3.9 6.93 2.29 10.71Z" />
		</g>
	</g>
</svg>