<svg xmlns="http://www.w3.org/2000/svg" viewBox="0 0 34 30" width="34" height="30">
	<style>
		tspan { white-space:pre }
		.shp0 { fill: #95e1d3 } 
	</style>
	<g id="service">
		<g id="3">
			<path id="COMPUTER / OK" class="shp0" d="M31 24L23.5 24L21.5 24L21.5 26.5L23.5 28.5L23.5 29L10.5 29L10.5 28.5L12.5 26.5L12.5 24L10.5 24L3 24C2.17 24 1.5 23.33 1.5 22.5L1.5 2.5C1.5 1.67 2.17 1 3 1L31 1C31.83 1 32.5 1.67 32.5 2.5L32.5 22.5C32.5 23.33 31.83 24 31 24ZM30.5 3L3.5 3L3.5 20L30.5 20L30.5 3ZM14 10C14.41 10 14.79 10.17 15.06 10.44L15.06 10.44L16 11.38L18.94 8.44L18.94 8.44C19.21 8.17 19.59 8 20 8C20.83 8 21.5 8.67 21.5 9.5C21.5 9.91 21.33 10.29 21.06 10.56L21.06 10.56L17.06 14.56L17.06 14.56C16.79 14.83 16.41 15 16 15C15.59 15 15.21 14.83 14.94 14.56L14.94 14.56L12.94 12.56L12.94 12.56C12.67 12.29 12.5 11.91 12.5 11.5C12.5 10.67 13.17 10 14 10Z" />
		</g>
	</g>
</svg>