<svg xmlns="http://www.w3.org/2000/svg" viewBox="0 0 20 20" width="20" height="20">
	<style>
		tspan { white-space:pre }
		.shp0 { fill: #ffffff } 
	</style>
	<g id="banner">
		<g id="menu">
			<path id="MAGNIFYING GLASS" class="shp0" d="M18.32 15.98C18.62 16.28 18.8 16.69 18.8 17.15C18.8 18.06 18.06 18.8 17.15 18.8C16.69 18.8 16.28 18.61 15.98 18.32L15.98 18.32L11.15 13.48C10.17 14.06 9.02 14.4 7.8 14.4C4.15 14.4 1.2 11.45 1.2 7.8C1.2 4.15 4.15 1.2 7.8 1.2C11.45 1.2 14.4 4.15 14.4 7.8C14.4 9.02 14.06 10.16 13.48 11.15L18.32 15.98L18.32 15.98ZM7.8 2.85C5.07 2.85 2.85 5.07 2.85 7.8C2.85 10.53 5.07 12.75 7.8 12.75C10.53 12.75 12.75 10.53 12.75 7.8C12.75 5.07 10.53 2.85 7.8 2.85Z" />
		</g>
	</g>
</svg>