<svg xmlns="http://www.w3.org/2000/svg" viewBox="0 0 20 17" width="20" height="17">
	<style>
		tspan { white-space:pre }
		.shp0 { fill: #ffffff } 
	</style>
	<g id="banner">
		<g id="menu">
			<path id="SHOPPING CART" class="shp0" d="M18.73 4.66L18.73 4.66L16.25 10.16L16.25 10.16C16.13 10.43 15.87 10.63 15.55 10.65L15.55 10.65L8.43 11.12L8.84 12.3L16.6 12.3C17.51 12.3 18.25 13.04 18.25 13.95C18.25 14.86 17.51 15.6 16.6 15.6C15.69 15.6 14.95 14.86 14.95 13.95L7.25 13.95C7.25 14.86 6.51 15.6 5.6 15.6C4.69 15.6 3.95 14.86 3.95 13.95C3.95 13.04 4.69 12.3 5.6 12.3L7.09 12.3L3.91 3.22L2.02 3.22C1.57 3.22 1.2 2.86 1.2 2.4C1.2 1.94 1.57 1.57 2.02 1.57L4.5 1.57C4.86 1.57 5.16 1.81 5.28 2.13L5.28 2.13L5.76 3.5L17.97 3.5C18.43 3.5 18.8 3.87 18.8 4.32C18.8 4.45 18.77 4.56 18.73 4.66ZM6.34 5.15L7.86 9.51L14.95 9.03L16.7 5.15L6.34 5.15Z" />
		</g>
	</g>
</svg>