<svg xmlns="http://www.w3.org/2000/svg" viewBox="0 0 24 15" width="24" height="15">
	<style>
		tspan { white-space:pre }
		.shp0 { fill: #cccccc } 
	</style>
	<g id="service 2">
		<g id="photography">
			<path id="ARROW / DOWN" class="shp0" d="M4.14 13.47L12 5.62L19.96 13.58L19.96 13.58C20.23 13.84 20.6 14 21 14C21.83 14 22.5 13.33 22.5 12.5C22.5 12.09 22.34 11.73 22.08 11.46L22.08 11.46L13.08 2.46L13.08 2.46C12.81 2.17 12.42 2 12 2C12 2 12 2 12 2C12 2 11.99 2 11.99 2C11.57 2 11.19 2.17 10.91 2.46L10.91 2.46L1.91 11.46L1.92 11.46C1.66 11.73 1.5 12.1 1.5 12.5C1.5 13.33 2.17 14 3 14C3.46 14 3.86 13.79 4.14 13.47Z" />
		</g>
	</g>
</svg>