<svg xmlns="http://www.w3.org/2000/svg" viewBox="0 0 20 19" width="20" height="19">
	<style>
		tspan { white-space:pre }
		.shp0 { fill: #95e1d3 } 
	</style>
	<g id="footer">
		<g id="1">
			<g id="icons">
				<path id="dribbble" class="shp0" d="M17.84 7.4C17.73 6.89 17.58 6.38 17.37 5.9C17.17 5.43 16.92 4.97 16.63 4.54C16.35 4.12 16.02 3.72 15.66 3.36C15.3 3 14.9 2.67 14.47 2.38C14.05 2.09 13.59 1.84 13.11 1.64C12.63 1.44 12.13 1.28 11.61 1.18C11.08 1.07 10.54 1.01 10 1.01C9.46 1.01 8.92 1.07 8.39 1.18C7.87 1.28 7.37 1.44 6.89 1.64C6.41 1.84 5.95 2.09 5.53 2.38C5.1 2.67 4.7 3 4.34 3.36C3.98 3.72 3.65 4.12 3.37 4.54C3.08 4.97 2.83 5.43 2.63 5.9C2.42 6.38 2.27 6.89 2.16 7.4C2.05 7.93 2 8.47 2 9.01C2 9.56 2.05 10.1 2.16 10.63C2.27 11.14 2.42 11.65 2.63 12.13C2.83 12.6 3.08 13.06 3.37 13.49C3.65 13.91 3.98 14.31 4.34 14.67C4.7 15.03 5.1 15.36 5.53 15.65C5.95 15.94 6.41 16.19 6.89 16.39C7.37 16.59 7.87 16.75 8.39 16.85C8.92 16.96 9.46 17.02 10 17.02C10.54 17.02 11.08 16.96 11.61 16.85C12.13 16.75 12.63 16.59 13.11 16.39C13.59 16.19 14.05 15.94 14.47 15.65C14.9 15.36 15.3 15.03 15.66 14.67C16.02 14.31 16.35 13.91 16.63 13.49C16.92 13.06 17.17 12.6 17.37 12.13C17.58 11.65 17.73 11.14 17.84 10.63C17.95 10.1 18 9.56 18 9.01C18 8.47 17.95 7.93 17.84 7.4ZM16.83 8.95C16.73 8.93 14.42 8.43 12.07 8.72C12.02 8.61 11.97 8.49 11.92 8.37C11.78 8.04 11.63 7.7 11.47 7.38C14.17 6.28 15.26 4.69 15.28 4.68C16.23 5.84 16.81 7.33 16.83 8.95ZM14.51 3.89C14.5 3.91 13.52 5.4 10.94 6.36C9.78 4.22 8.49 2.51 8.39 2.38C8.91 2.25 9.44 2.18 10 2.18C11.73 2.18 13.31 2.83 14.51 3.89ZM8.36 2.38C8.36 2.38 8.36 2.38 8.36 2.38C8.36 2.38 8.35 2.38 8.34 2.39C8.35 2.38 8.36 2.38 8.36 2.38ZM7.08 2.84C7.18 2.96 8.44 4.67 9.62 6.77C6.34 7.64 3.49 7.61 3.31 7.61C3.76 5.49 5.18 3.74 7.08 2.84ZM3.17 9.01C3.17 8.94 3.17 8.87 3.17 8.8C3.29 8.8 6.67 8.88 10.19 7.83C10.38 8.21 10.57 8.6 10.74 8.99C10.65 9.01 10.56 9.04 10.47 9.07C6.79 10.26 4.92 13.58 4.92 13.58C4.92 13.58 4.92 13.58 4.92 13.58C3.83 12.37 3.17 10.77 3.17 9.01ZM10 15.85C8.35 15.85 6.83 15.26 5.65 14.28C5.74 14.35 5.8 14.4 5.8 14.4C5.8 14.4 7.11 11.54 11.16 10.13C11.18 10.13 11.19 10.12 11.21 10.12C12.17 12.62 12.57 14.71 12.67 15.31C11.85 15.65 10.95 15.85 10 15.85ZM13.82 14.68C13.75 14.27 13.38 12.26 12.49 9.8C14.69 9.45 16.6 10.05 16.75 10.1C16.44 12 15.35 13.65 13.82 14.68Z" />
			</g>
		</g>
	</g>
</svg>