<svg xmlns="http://www.w3.org/2000/svg" viewBox="0 0 11 20" width="11" height="20">
	<style>
		tspan { white-space:pre }
		.shp0 { fill: #95e1d3 } 
	</style>
	<g id="footer">
		<g id="1">
			<g id="icons">
				<path id="facebook" class="shp0" d="M8.99 2.01C8.99 2.94 8.99 4.59 8.99 4.59C8.99 4.59 7.09 4.4 6.62 5.13C6.36 5.53 6.51 6.69 6.49 7.53C7.32 7.53 8.18 7.53 9.01 7.53C8.8 8.51 8.64 9.17 8.49 10.01C7.77 10.01 6.48 10.01 6.48 10.01L6.48 18.02C6.48 18.02 4.1 18.02 2.99 18.02C2.99 15.55 2.99 12.67 2.99 10.05C2.45 10.05 2.05 10.05 1.5 10.05C1.5 9.12 1.5 8.45 1.5 7.53C2.03 7.53 2.45 7.53 2.97 7.53C3.05 5.69 3.08 3.86 3.99 2.93C5.02 1.89 6 2.01 8.99 2.01Z" />
			</g>
		</g>
	</g>
</svg>