<svg xmlns="http://www.w3.org/2000/svg" viewBox="0 0 19 17" width="19" height="17">
	<style>
		tspan { white-space:pre }
		.shp0 { fill: #95e1d3 } 
	</style>
	<g id="footer">
		<g id="1">
			<g id="icons">
				<path id="google plus" class="shp0" d="M15.5 4.72L15.5 7.16L14.5 7.16L14.5 4.72L12 4.72L12 3.72L14.5 3.72L14.5 1.28L15.5 1.28L15.5 3.72L18 3.72L18 4.72L15.5 4.72ZM8.59 2.25C9.47 2.74 9.99 3.53 9.99 4.58C9.99 5.45 9.45 6.14 8.75 6.68C8.07 7.2 7.94 7.42 7.94 7.86C7.94 8.24 8.67 8.89 9.05 9.15C10.17 9.93 10.5 10.65 10.5 11.85C10.5 13.34 9.05 15.02 6.38 15.02C4.04 15.02 2 13.9 2 12.4C2 10.88 3.87 9.41 6.21 9.41C6.46 9.41 6.7 9.4 6.94 9.4C6.62 9.09 6.37 8.71 6.37 8.25C6.37 7.98 6.46 7.7 6.58 7.46C6.45 7.47 6.32 7.45 6.19 7.45C4.26 7.45 2.98 6.06 2.98 4.4C2.98 2.76 4.76 1.26 6.65 1.26C7.7 1.26 10.87 1.26 10.87 1.26L9.92 2.25L8.59 2.25ZM6.66 9.8C5.04 9.78 3.58 10.77 3.58 11.95C3.58 13.16 4.75 14.05 6.37 14.05C8.65 14.05 9.45 13.23 9.45 12.02C9.45 11.87 9.43 11.73 9.39 11.59C9.22 10.9 8.58 10.57 7.71 9.97C7.39 9.86 7.03 9.8 6.66 9.8ZM8.48 4.6C8.29 3.19 7.21 2.07 6.12 2.04C5.03 2.01 4.3 3.08 4.49 4.48C4.68 5.88 5.71 7.05 6.8 7.08C7.89 7.11 8.66 6 8.48 4.6Z" />
			</g>
		</g>
	</g>
</svg>