<svg xmlns="http://www.w3.org/2000/svg" viewBox="0 0 19 19" width="19" height="19">
	<style>
		tspan { white-space:pre }
		.shp0 { fill: #95e1d3 } 
	</style>
	<g id="footer">
		<g id="1">
			<g id="icons">
				<path id="instagram" class="shp0" d="M16 17.01L4 17.01C2.9 17.01 2 16.12 2 15.02L2 3.02C2 1.91 2.9 1.01 4 1.01L16 1.01C17.1 1.01 18 1.91 18 3.02L18 15.02C18 16.12 17.1 17.01 16 17.01ZM10 5.91C8.75 5.91 7.68 6.65 7.19 7.71L7.19 7.71C7.18 7.73 7.18 7.74 7.17 7.75C7.14 7.81 7.12 7.88 7.09 7.95C7.08 7.98 7.07 8.01 7.06 8.05C7.03 8.12 7.01 8.19 7 8.26C6.99 8.29 6.98 8.33 6.97 8.36C6.95 8.44 6.94 8.51 6.93 8.59C6.93 8.62 6.92 8.65 6.92 8.68C6.91 8.79 6.9 8.9 6.9 9.01C6.9 10.73 8.29 12.11 10 12.11C11.71 12.11 13.1 10.73 13.1 9.01C13.1 8.9 13.09 8.79 13.08 8.68C13.08 8.65 13.07 8.62 13.07 8.59C13.06 8.51 13.05 8.44 13.03 8.36C13.02 8.33 13.01 8.29 13 8.26C12.99 8.19 12.97 8.12 12.94 8.05C12.93 8.01 12.92 7.98 12.91 7.95C12.88 7.88 12.86 7.81 12.83 7.75C12.82 7.74 12.82 7.73 12.81 7.71L12.81 7.71C12.32 6.65 11.25 5.91 10 5.91ZM16.2 3.62C16.2 3.17 15.84 2.82 15.4 2.82L13.8 2.82C13.36 2.82 13 3.17 13 3.62L13 5.22C13 5.66 13.36 6.01 13.8 6.01L15.4 6.01C15.84 6.01 16.2 5.66 16.2 5.22L16.2 3.62ZM16.2 7.71L14.73 7.71C14.84 8.13 14.9 8.56 14.9 9.01C14.9 11.72 12.71 13.91 10 13.91C7.29 13.91 5.1 11.72 5.1 9.01C5.1 8.56 5.16 8.13 5.27 7.71L3.8 7.71L3.8 14.42C3.8 14.86 4.16 15.21 4.6 15.21L15.4 15.21C15.84 15.21 16.2 14.86 16.2 14.42L16.2 7.71Z" />
			</g>
		</g>
	</g>
</svg>