<svg xmlns="http://www.w3.org/2000/svg" viewBox="0 0 15 20" width="15" height="20">
	<style>
		tspan { white-space:pre }
		.shp0 { fill: #95e1d3 } 
	</style>
	<g id="footer">
		<g id="1">
			<g id="icons">
				<path id="pinterest" class="shp0" d="M6.84 12.42C6.71 12.94 6.58 13.49 6.45 14.02C6.31 14.55 6.19 15.08 6 15.57C5.67 16.37 5.26 17.14 4.72 17.77C4.36 18.19 4.44 18.02 4.33 18C4.25 17.98 4.24 17.9 4.22 17.78C4.13 17.14 4.19 16.41 4.23 15.69C4.26 14.88 4.44 14.2 4.6 13.52C4.9 12.23 5.19 10.97 5.49 9.67C5.51 9.59 5.57 9.44 5.55 9.39C5.41 9.03 5.32 8.71 5.28 8.33C5.24 7.9 5.27 7.49 5.37 7.12C5.54 6.46 5.94 5.87 6.55 5.66C6.94 5.52 7.37 5.58 7.64 5.74C7.91 5.9 8.09 6.15 8.18 6.52C8.27 6.9 8.2 7.36 8.13 7.7C7.96 8.46 7.74 9.03 7.54 9.77C7.44 10.13 7.33 10.51 7.42 10.9C7.51 11.26 7.7 11.51 7.95 11.7C8.22 11.89 8.53 12 8.97 11.98C9.74 11.95 10.27 11.46 10.63 11C11.2 10.26 11.54 9.26 11.67 8.07C11.71 7.69 11.75 7.25 11.72 6.81C11.66 6.01 11.41 5.37 11.01 4.86C10.63 4.39 10.1 4.01 9.44 3.8C8.79 3.58 7.9 3.51 7.1 3.65C5.65 3.9 4.63 4.72 4.03 5.86C3.71 6.45 3.5 7.14 3.5 7.99C3.5 8.65 3.67 9.16 3.93 9.55C4.01 9.68 4.13 9.78 4.22 9.93C4.33 10.13 4.2 10.43 4.14 10.65C4.07 10.92 4.06 11.29 3.75 11.29C3.63 11.29 3.46 11.2 3.36 11.14C2.54 10.69 2.04 9.87 1.84 8.81C1.72 8.16 1.72 7.41 1.84 6.78C1.96 6.18 2.18 5.62 2.43 5.17C2.94 4.23 3.68 3.48 4.59 2.94C5.29 2.53 6.07 2.24 7.03 2.1C7.35 2.05 7.68 2.04 8.03 2.02C9.08 1.97 10.02 2.21 10.74 2.52C11.49 2.86 12.09 3.31 12.6 3.87C13.12 4.44 13.51 5.1 13.75 5.93C13.87 6.37 14 6.83 14 7.36C14 7.9 13.88 8.37 13.8 8.84C13.51 10.61 12.67 12.06 11.4 12.88C11.1 13.08 10.73 13.26 10.31 13.39C9.89 13.51 9.42 13.6 8.91 13.56C8.41 13.53 8.01 13.39 7.67 13.2C7.33 13.01 7.05 12.78 6.84 12.42Z" />
			</g>
		</g>
	</g>
</svg>