<svg xmlns="http://www.w3.org/2000/svg" viewBox="0 0 13 19" width="13" height="19">
	<style>
		tspan { white-space:pre }
		.shp0 { fill: #95e1d3 } 
	</style>
	<g id="footer">
		<g id="1">
			<g id="icons">
				<path id="tumblr" class="shp0" d="M11.01 16.15C10.33 16.47 9.71 16.69 9.16 16.82C8.61 16.95 8.01 17.02 7.37 17.02C6.64 17.02 6.21 16.93 5.65 16.74C5.09 16.56 4.62 16.29 4.22 15.95C3.83 15.61 3.55 15.24 3.4 14.86C3.25 14.47 3.17 13.92 3.17 13.18L3.17 7.57L1.01 7.57L1.01 5.3C1.63 5.1 2.36 4.8 2.8 4.42C3.25 4.04 3.61 3.58 3.88 3.05C4.15 2.51 4.33 1.83 4.44 1.01L6.7 1.01L6.7 4.71L10.38 4.71L10.38 7.57L6.7 7.57L6.7 11.67C6.7 12.6 6.69 13.14 6.79 13.4C6.88 13.66 7.13 13.93 7.39 14.09C7.75 14.3 8.15 14.41 8.6 14.41C9.41 14.41 10.21 14.15 11.01 13.62L11.01 16.15Z" />
			</g>
		</g>
	</g>
</svg>