<svg xmlns="http://www.w3.org/2000/svg" viewBox="0 0 19 16" width="19" height="16">
	<style>
		tspan { white-space:pre }
		.shp0 { fill: #95e1d3 } 
	</style>
	<g id="footer">
		<g id="1">
			<g id="icons">
				<path id="twitter" class="shp0" d="M12.88 1.52C14.15 1.49 14.83 1.96 15.48 2.55C16.03 2.5 16.74 2.19 17.16 1.98C17.3 1.9 17.43 1.83 17.57 1.76C17.33 2.4 17 2.91 16.5 3.3C16.39 3.38 16.28 3.5 16.14 3.55C16.14 3.55 16.14 3.56 16.14 3.56C16.85 3.55 17.44 3.23 18 3.06C18 3.06 18 3.06 18 3.06C17.71 3.53 17.31 4 16.89 4.34C16.72 4.48 16.55 4.61 16.37 4.75C16.38 5.5 16.36 6.22 16.22 6.86C15.4 10.54 13.23 13.04 9.79 14.11C8.56 14.5 6.56 14.66 5.15 14.31C4.45 14.13 3.81 13.94 3.22 13.68C2.89 13.53 2.58 13.38 2.29 13.2C2.19 13.14 2.1 13.08 2 13.02C2.32 13.03 2.69 13.12 3.05 13.06C3.37 13.01 3.69 13.02 3.99 12.96C4.73 12.79 5.39 12.58 5.96 12.25C6.23 12.09 6.65 11.9 6.84 11.66C6.48 11.67 6.14 11.58 5.87 11.49C4.81 11.11 4.19 10.42 3.79 9.39C4.11 9.42 5.03 9.51 5.25 9.32C4.85 9.3 4.46 9.07 4.18 8.89C3.32 8.36 2.63 7.46 2.63 6.08C2.74 6.14 2.86 6.19 2.97 6.24C3.18 6.33 3.4 6.38 3.66 6.43C3.77 6.46 3.98 6.52 4.11 6.47C4.1 6.47 4.1 6.47 4.09 6.47C3.92 6.28 3.66 6.15 3.49 5.95C2.94 5.27 2.43 4.22 2.75 2.97C2.84 2.65 2.97 2.37 3.11 2.11C3.11 2.12 3.12 2.12 3.12 2.12C3.18 2.26 3.33 2.35 3.42 2.47C3.7 2.81 4.04 3.12 4.39 3.4C5.59 4.34 6.67 4.91 8.41 5.34C8.85 5.45 9.35 5.53 9.88 5.53C9.73 5.1 9.78 4.41 9.9 3.99C10.19 2.94 10.82 2.19 11.75 1.79C11.98 1.69 12.22 1.62 12.48 1.56C12.62 1.55 12.75 1.53 12.88 1.52Z" />
			</g>
		</g>
	</g>
</svg>