<svg xmlns="http://www.w3.org/2000/svg" viewBox="0 0 22 28" width="22" height="28">
	<style>
		tspan { white-space:pre }
		.shp0 { fill: #f38181 } 
	</style>
	<g id="map">
		<path id="PIN 2" class="shp0" d="M11 26.8C11 26.8 1.4 16.1 1.4 10.8C1.4 5.5 5.7 1.2 11 1.2C16.3 1.2 20.6 5.5 20.6 10.8C20.6 16.1 11 26.8 11 26.8ZM11 4.4C7.47 4.4 4.6 7.27 4.6 10.8C4.6 14.33 7.47 17.2 11 17.2C14.53 17.2 17.4 14.33 17.4 10.8C17.4 7.27 14.53 4.4 11 4.4ZM11 14C9.23 14 7.8 12.57 7.8 10.8C7.8 9.03 9.23 7.6 11 7.6C12.77 7.6 14.2 9.03 14.2 10.8C14.2 12.57 12.77 14 11 14Z" />
	</g>
</svg>