<svg xmlns="http://www.w3.org/2000/svg" viewBox="0 0 66 64" width="66" height="64">
	<style>
		tspan { white-space:pre }
		.shp0 { fill: #95e1d3 } 
	</style>
	<g id="quote">
		<path id="SPEECH 4" class="shp0" d="M61 38L60.1 38L60.1 38L59 38L59 43L59 43C59 43.2 58.98 43.41 58.94 43.6C58.91 43.74 58.86 43.87 58.82 44C58.8 44.05 58.79 44.11 58.76 44.17C58.72 44.28 58.65 44.39 58.59 44.49C58.55 44.55 58.53 44.62 58.49 44.68C58.39 44.82 58.28 44.95 58.15 45.08C58.14 45.09 58.13 45.11 58.12 45.12C57.59 45.65 56.85 45.98 56.04 45.99C56.02 45.99 56.01 46 56 46L56 46L56 46C55.17 46 54.42 45.66 53.88 45.12L46.76 38L46.4 38L46.4 38L19 38C17.34 38 16 36.66 16 35L16 5C16 3.34 17.34 2 19 2L61 2C62.66 2 64 3.34 64 5L64 35C64 36.66 62.66 38 61 38ZM45.51 41L51.84 47.32L51.85 47.32C52.93 48.35 54.39 49 56 49L56 51C56 52.66 54.66 54 53 54L53 54L31.9 54L31.9 54L25 54L25 54L22 54L22 54L21.24 54L13.12 62.12C12.58 62.66 11.83 63 11 63L11 63L11 63C10.99 63 10.98 62.99 10.96 62.99C10.15 62.98 9.41 62.65 8.88 62.12C8.87 62.11 8.86 62.09 8.85 62.08C8.72 61.95 8.61 61.82 8.51 61.67C8.47 61.62 8.45 61.55 8.41 61.49C8.35 61.38 8.28 61.28 8.24 61.17C8.21 61.11 8.2 61.05 8.18 61C8.14 60.87 8.09 60.74 8.06 60.6C8.02 60.41 8 60.21 8 60L8 60L8 54L7.5 54L7.5 54L4 54C2.34 54 1 52.65 1 51L1 17C1 17 1 17 1 17C1 15.34 2.34 14 4 14L13 14L13 35C13 38.31 15.69 41 19 41L45.51 41Z" />
	</g>
</svg>