<svg xmlns="http://www.w3.org/2000/svg" viewBox="0 0 32 35" width="32" height="35">
	<style>
		tspan { white-space:pre }
		.shp0 { fill: #95e1d3 } 
	</style>
	<g id="service 2">
		<g id="creativity">
			<path id="EQUALIZER" class="shp0" d="M28.5 18.5L25.5 18.5C24.67 18.5 24 17.83 24 17L24 11C24 10.17 24.67 9.5 25.5 9.5L28.5 9.5C29.33 9.5 30 10.17 30 11L30 17C30 17.83 29.33 18.5 28.5 18.5ZM25.5 3.5C25.5 2.67 26.17 2 27 2C27.83 2 28.5 2.67 28.5 3.5L28.5 8L25.5 8L25.5 3.5ZM17.5 26.5L14.5 26.5C13.67 26.5 13 25.83 13 25L13 19C13 18.17 13.67 17.5 14.5 17.5L17.5 17.5C18.33 17.5 19 18.17 19 19L19 25C19 25.83 18.33 26.5 17.5 26.5ZM14.5 3.5C14.5 2.67 15.17 2 16 2C16.83 2 17.5 2.67 17.5 3.5L17.5 16L14.5 16L14.5 3.5ZM6.5 22.5L3.5 22.5C2.67 22.5 2 21.83 2 21L2 15C2 14.17 2.67 13.5 3.5 13.5L6.5 13.5C7.33 13.5 8 14.17 8 15L8 21C8 21.83 7.33 22.5 6.5 22.5ZM3.5 3.5C3.5 2.67 4.17 2 5 2C5.83 2 6.5 2.67 6.5 3.5L6.5 12L3.5 12L3.5 3.5ZM6.5 32.5C6.5 33.33 5.83 34 5 34C4.17 34 3.5 33.33 3.5 32.5L3.5 24L6.5 24L6.5 32.5ZM17.5 32.5C17.5 33.33 16.83 34 16 34C15.17 34 14.5 33.33 14.5 32.5L14.5 28L17.5 28L17.5 32.5ZM28.5 32.5C28.5 33.33 27.83 34 27 34C26.17 34 25.5 33.33 25.5 32.5L25.5 20L28.5 20L28.5 32.5Z" />
		</g>
	</g>
</svg>