<svg xmlns="http://www.w3.org/2000/svg" viewBox="0 0 33 33" width="33" height="33">
	<style>
		tspan { white-space:pre }
		.shp0 { fill: #95e1d3 } 
	</style>
	<g id="service 2">
		<g id="photography">
			<path id="PICTURE" class="shp0" d="M32 26C32 26.65 31.58 27.2 31 27.41L31 29.09C31.58 29.3 32 29.85 32 30.5C32 31.33 31.33 32 30.5 32C29.85 32 29.3 31.58 29.09 31L27.41 31C27.2 31.58 26.65 32 26 32C25.35 32 24.8 31.58 24.59 31L22.91 31C22.7 31.58 22.15 32 21.5 32C20.85 32 20.3 31.58 20.09 31L18.41 31C18.2 31.58 17.65 32 17 32C16.35 32 15.8 31.58 15.59 31L13.91 31C13.7 31.58 13.15 32 12.5 32C11.85 32 11.3 31.58 11.09 31L9.41 31C9.2 31.58 8.65 32 8 32C7.35 32 6.8 31.58 6.59 31L4.91 31C4.7 31.58 4.15 32 3.5 32C2.67 32 2 31.33 2 30.5C2 29.85 2.42 29.3 3 29.09L3 27.41C2.42 27.2 2 26.65 2 26C2 25.35 2.42 24.8 3 24.59L3 22.91C2.42 22.7 2 22.15 2 21.5C2 20.85 2.42 20.3 3 20.09L3 18.41C2.42 18.2 2 17.65 2 17C2 16.35 2.42 15.8 3 15.59L3 13.91C2.42 13.7 2 13.15 2 12.5C2 11.85 2.42 11.3 3 11.09L3 9.41C2.42 9.2 2 8.65 2 8C2 7.35 2.42 6.8 3 6.59L3 4.91C2.42 4.7 2 4.15 2 3.5C2 2.67 2.67 2 3.5 2C4.15 2 4.7 2.42 4.91 3L6.59 3C6.8 2.42 7.35 2 8 2C8.65 2 9.2 2.42 9.41 3L11.09 3C11.3 2.42 11.85 2 12.5 2C13.15 2 13.7 2.42 13.91 3L15.59 3C15.8 2.42 16.35 2 17 2C17.65 2 18.2 2.42 18.41 3L20.09 3C20.3 2.42 20.85 2 21.5 2C22.15 2 22.7 2.42 22.91 3L24.59 3C24.8 2.42 25.35 2 26 2C26.65 2 27.2 2.42 27.41 3L29.09 3C29.3 2.42 29.85 2 30.5 2C31.33 2 32 2.67 32 3.5C32 4.15 31.58 4.7 31 4.91L31 6.59C31.58 6.8 32 7.35 32 8C32 8.65 31.58 9.2 31 9.41L31 11.09C31.58 11.3 32 11.85 32 12.5C32 13.15 31.58 13.7 31 13.91L31 15.59C31.58 15.8 32 16.35 32 17C32 17.65 31.58 18.2 31 18.41L31 20.09C31.58 20.3 32 20.85 32 21.5C32 22.15 31.58 22.7 31 22.91L31 24.59C31.58 24.8 32 25.35 32 26ZM28 6L6 6L6 28L28 28L28 6ZM15 22L22 13.5L26.5 20.5L26.5 26.5L7.5 26.5L13.5 20.5L15 22ZM12 15C10.34 15 9 13.65 9 12C9 10.34 10.34 9 12 9C13.66 9 15 10.34 15 12C15 13.65 13.66 15 12 15Z" />
		</g>
	</g>
</svg>