<svg xmlns="http://www.w3.org/2000/svg" viewBox="0 0 35 35" width="35" height="35">
	<style>
		tspan { white-space:pre }
		.shp0 { fill: #95e1d3 } 
	</style>
	<g id="service 2">
		<g id="web design">
			<path id="BULLSEYE" class="shp0" d="M17 34C8.16 34 1 26.84 1 18C1 9.16 8.16 2 17 2C25.84 2 33 9.16 33 18C33 26.84 25.84 34 17 34ZM17 5C9.82 5 4 10.82 4 18C4 25.18 9.82 31 17 31C24.18 31 30 25.18 30 18C30 10.82 24.18 5 17 5ZM17 27.5C11.75 27.5 7.5 23.24 7.5 18C7.5 12.75 11.75 8.5 17 8.5C22.25 8.5 26.5 12.75 26.5 18C26.5 23.24 22.25 27.5 17 27.5ZM17 11.5C13.41 11.5 10.5 14.41 10.5 18C10.5 21.59 13.41 24.5 17 24.5C20.59 24.5 23.5 21.59 23.5 18C23.5 14.41 20.59 11.5 17 11.5ZM17 21C15.34 21 14 19.66 14 18C14 16.34 15.34 15 17 15C18.66 15 20 16.34 20 18C20 19.66 18.66 21 17 21Z" />
		</g>
	</g>
</svg>